<svg width="18" height="18" viewBox="0 0 18 18" fill="none" xmlns="http://www.w3.org/2000/svg">
<path d="M15.7663 3.32611C15.3753 2.90569 14.9111 2.57219 14.4002 2.34465C13.8893 2.11711 13.3417 2 12.7887 2C12.2357 2 11.6881 2.11711 11.1772 2.34465C10.6663 2.57219 10.2021 2.90569 9.81116 3.32611L8.9998 4.19821L8.18843 3.32611C7.39874 2.4773 6.32768 2.00044 5.21089 2.00044C4.09409 2.00044 3.02303 2.4773 2.23334 3.32611C1.44365 4.17492 1 5.32616 1 6.52656C1 7.72696 1.44365 8.87819 2.23334 9.727L3.0447 10.5991L8.9998 17L14.9549 10.5991L15.7663 9.727C16.1574 9.30679 16.4677 8.80785 16.6794 8.25871C16.891 7.70957 17 7.12097 17 6.52656C17 5.93214 16.891 5.34355 16.6794 4.7944C16.4677 4.24526 16.1574 3.74633 15.7663 3.32611Z" fill="#606893"/>
</svg>
