<svg width="129" height="44" viewBox="0 0 129 44" fill="none" xmlns="http://www.w3.org/2000/svg">
<rect y="6" width="35" height="31" rx="3" fill="#069CFA"/>
<path d="M21.064 10.28C21.6827 10.28 22.1733 10.472 22.536 10.856C22.8987 11.2187 23.08 11.7093 23.08 12.328V31.112C23.08 31.7307 22.888 32.232 22.504 32.616C22.1413 33 21.6613 33.192 21.064 33.192C20.4453 33.192 19.9547 33 19.592 32.616C19.2293 32.232 19.048 31.7307 19.048 31.112V23.208H7.496V31.112C7.496 31.7307 7.304 32.232 6.92 32.616C6.55733 33 6.06667 33.192 5.448 33.192C4.85067 33.192 4.36 33 3.976 32.616C3.61333 32.232 3.432 31.7307 3.432 31.112V12.328C3.432 11.7093 3.61333 11.2187 3.976 10.856C4.33867 10.472 4.82933 10.28 5.448 10.28C6.06667 10.28 6.55733 10.472 6.92 10.856C7.304 11.2187 7.496 11.7093 7.496 12.328V19.88H19.048V12.328C19.048 11.7093 19.2293 11.2187 19.592 10.856C19.9547 10.472 20.4453 10.28 21.064 10.28ZM29.98 33.192C29.3613 33.192 28.86 33 28.476 32.616C28.1133 32.232 27.932 31.7307 27.932 31.112V12.328C27.932 11.7093 28.1133 11.2187 28.476 10.856C28.86 10.472 29.3613 10.28 29.98 10.28C30.62 10.28 31.1213 10.472 31.484 10.856C31.868 11.2187 32.06 11.7093 32.06 12.328V31.112C32.06 31.7307 31.868 32.232 31.484 32.616C31.1213 33 30.62 33.192 29.98 33.192Z" fill="white"/>
<path d="M48.48 33.288C46.2827 33.288 44.3733 32.8187 42.752 31.88C41.152 30.9413 39.9147 29.5973 39.04 27.848C38.1653 26.0987 37.728 24.0507 37.728 21.704C37.728 19.3573 38.1547 17.32 39.008 15.592C39.8827 13.8427 41.1307 12.4987 42.752 11.56C44.3733 10.6213 46.2827 10.152 48.48 10.152C50.6773 10.152 52.576 10.6213 54.176 11.56C55.7973 12.4987 57.0347 13.8427 57.888 15.592C58.7627 17.32 59.2 19.3573 59.2 21.704C59.2 24.0507 58.7627 26.0987 57.888 27.848C57.0133 29.5973 55.7653 30.9413 54.144 31.88C52.544 32.8187 50.656 33.288 48.48 33.288ZM48.48 29.992C50.5493 29.992 52.16 29.2773 53.312 27.848C54.4853 26.4187 55.072 24.3707 55.072 21.704C55.072 19.0373 54.4853 17 53.312 15.592C52.16 14.1627 50.5493 13.448 48.48 13.448C46.3893 13.448 44.7573 14.1627 43.584 15.592C42.432 17 41.856 19.0373 41.856 21.704C41.856 24.3707 42.432 26.4187 43.584 27.848C44.7573 29.2773 46.3893 29.992 48.48 29.992ZM81.0015 10.28C81.6202 10.28 82.1108 10.472 82.4735 10.856C82.8362 11.2187 83.0175 11.7093 83.0175 12.328V31.112C83.0175 31.7307 82.8255 32.232 82.4415 32.616C82.0788 33 81.5988 33.192 81.0015 33.192C80.3828 33.192 79.8922 33 79.5295 32.616C79.1668 32.232 78.9855 31.7307 78.9855 31.112V23.208H67.4335V31.112C67.4335 31.7307 67.2415 32.232 66.8575 32.616C66.4948 33 66.0042 33.192 65.3855 33.192C64.7882 33.192 64.2975 33 63.9135 32.616C63.5508 32.232 63.3695 31.7307 63.3695 31.112V12.328C63.3695 11.7093 63.5508 11.2187 63.9135 10.856C64.2762 10.472 64.7668 10.28 65.3855 10.28C66.0042 10.28 66.4948 10.472 66.8575 10.856C67.2415 11.2187 67.4335 11.7093 67.4335 12.328V19.88H78.9855V12.328C78.9855 11.7093 79.1668 11.2187 79.5295 10.856C79.8922 10.472 80.3828 10.28 81.0015 10.28ZM89.9175 33.192C89.2988 33.192 88.7975 33 88.4135 32.616C88.0508 32.232 87.8695 31.7307 87.8695 31.112V12.328C87.8695 11.7093 88.0508 11.2187 88.4135 10.856C88.7975 10.472 89.2988 10.28 89.9175 10.28C90.5575 10.28 91.0588 10.472 91.4215 10.856C91.8055 11.2187 91.9975 11.7093 91.9975 12.328V31.112C91.9975 31.7307 91.8055 32.232 91.4215 32.616C91.0588 33 90.5575 33.192 89.9175 33.192ZM98.0855 26.024C97.4668 26.024 96.9975 25.8853 96.6775 25.608C96.3788 25.3307 96.2295 24.9467 96.2295 24.456C96.2295 23.9653 96.3788 23.5813 96.6775 23.304C96.9975 23.0053 97.4668 22.856 98.0855 22.856H104.678C105.296 22.856 105.755 23.0053 106.054 23.304C106.374 23.5813 106.534 23.9653 106.534 24.456C106.534 24.9467 106.374 25.3307 106.054 25.608C105.755 25.8853 105.296 26.024 104.678 26.024H98.0855ZM117.928 33.288C116.285 33.288 114.728 33.0747 113.256 32.648C111.805 32.2 110.621 31.6027 109.704 30.856C109.213 30.4933 108.968 29.9813 108.968 29.32C108.968 28.872 109.096 28.488 109.352 28.168C109.629 27.8267 109.949 27.656 110.312 27.656C110.696 27.656 111.133 27.8053 111.624 28.104C112.541 28.7653 113.501 29.2453 114.504 29.544C115.506 29.8427 116.616 29.992 117.832 29.992C119.389 29.992 120.584 29.7253 121.416 29.192C122.248 28.6373 122.664 27.8373 122.664 26.792C122.664 25.9813 122.269 25.3627 121.48 24.936C120.712 24.488 119.421 24.0613 117.608 23.656C115.73 23.2507 114.205 22.7813 113.032 22.248C111.858 21.7147 110.973 21.032 110.376 20.2C109.778 19.368 109.48 18.312 109.48 17.032C109.48 15.7093 109.853 14.5253 110.6 13.48C111.346 12.4347 112.381 11.624 113.704 11.048C115.048 10.4507 116.552 10.152 118.216 10.152C121.266 10.152 123.752 10.9627 125.672 12.584C125.949 12.8187 126.141 13.0533 126.248 13.288C126.376 13.5013 126.44 13.7787 126.44 14.12C126.44 14.568 126.301 14.9627 126.024 15.304C125.768 15.624 125.458 15.784 125.096 15.784C124.882 15.784 124.68 15.752 124.488 15.688C124.317 15.624 124.082 15.5067 123.784 15.336C122.909 14.696 122.056 14.2267 121.224 13.928C120.413 13.608 119.41 13.448 118.216 13.448C116.765 13.448 115.613 13.7467 114.76 14.344C113.928 14.92 113.512 15.7307 113.512 16.776C113.512 17.6507 113.885 18.3227 114.632 18.792C115.378 19.2613 116.648 19.6987 118.44 20.104C120.338 20.5307 121.874 21.0107 123.048 21.544C124.242 22.056 125.149 22.7173 125.767 23.528C126.408 24.3387 126.728 25.352 126.728 26.568C126.728 27.8907 126.354 29.064 125.608 30.088C124.882 31.0907 123.848 31.88 122.504 32.456C121.181 33.0107 119.656 33.288 117.928 33.288Z" fill="white"/>
</svg>
